<svg id="Layer_1" enable-background="new 0 0 496.03 496.03" height="512" viewBox="0 0 496.03 496.03" width="512" xmlns="http://www.w3.org/2000/svg"><path d="m292.97 394.117 27.44 49.1 51.51 4.48c8.81.77 15.32 8.52 14.56 17.33-.77 8.8-8.53 15.31-17.33 14.55l-56.51-4.91-29.98 10.58c-8.261 2.911-17.457-1.369-20.42-9.76-2.94-8.34 1.43-17.48 9.77-20.42l15.34-5.41-26.89-48.13c-26.2 4.22-47.12 3.57-56.17 2.95l-181.53 83.95c-13.37 6.16-27.17-7.48-21.42-20.85 3.91-9.08 7.89-18.01 11.93-26.8 1.417-3.1 4.2-5.116 5.2-5.45 138.41-72.62 276.91-162.7 308.76-200.8 16.57-19.82 29.9-41.05 30.67-69.81.33-13.59 10.99-22.23 22.39-21.66 8.76.43 31.48 1.61 51.41 2.63 7.93.41 14.35 6.57 15.11 14.47 10.434 109.276-50.853 203.243-153.84 233.96zm190.46-281.801c-20.597 4.46-1.142 3.764-101.554-1.223-30.329-1.5-55.298 22.422-55.961 52.45-.487 20.108-10.588 35.327-22.872 50.017-23.693 28.356-128.361 99.028-245.832 164.438-5.264 2.931-11.102-2.861-8.186-8.133 23.762-42.96 49.292-81.448 76.366-115.058 27.963-34.724 95.262-111.635 145.67-167.69 37.414-106.334 161.278-100.654 182.56-25.67l34.86 21.64c12.199 7.575 8.966 26.193-5.051 29.229zm-92-45.8c0-9.432-8.13-16.828-17.57-15.92-8.621.826-15.208 8.537-14.35 17.49.833 8.615 8.501 15.196 17.5 14.35 7.996-.78 14.42-7.535 14.42-15.92z"/></svg>