<svg baseProfile="tiny" xmlns="http://www.w3.org/2000/svg" width="700" height="244.5" viewBox="0 0 700 244.5" overflow="inherit"><path fill-rule="evenodd" fill="#73A441" d="M473.73 126.488s-3-11.275-3.773-14.417l-3.59-3.383-12.002 5.387a3.335 3.335 0 0 1-2.134-.104l-16.823-9.31v-.003s-.512-1.106-.355-1.85c.017-.046 0-.1 0-.16l1.05-5.596 6.342-24.814 4.365 20.483.216-.03 2.914-5.108 3.533 4.148.276-.04 7.946-10.946-1.197-2.292-3.627-2.268 3.29-6.387c-1.38-7.05-4.477-13.116-5.14-17.177l-1.456-1.622-1.328-.017-3.472-.48-15.6-.084-3.895 12.02-4.6 15.39-1.094 4.705-.355.904-1.085 3.8-2.204 7.324.382.638-.537 2.184s-.095.182-.564.146a2525.93 2525.93 0 0 0-3.774 15.604v.177l-.547 5.073-2.706 9.957-.912 4.33-.28.652c-.318 1.77-.483 3.022-.464 3.62.033.982.552 1.85 1.872 1.824 1.486-.025 2.958.14 4.443.15 2.287.04 7.27.03 10.497.04.47-.165.685-.542.685-1.237 0-1.178 1.147-3.11 1.668-5.46l.017-.487.938-3.703 1.508-5.617h20.78c.216 1.064.514 2.232.824 3.426h.2c.01.314.025.613.045.92 1.084 4.035 2.37 8.367 2.487 10.922.026.404.764 1.145 1.187 1.16.757.043 11.107.078 11.107.078l1.738-2.182 2.774-3.47.425-6.816zM530.268 135.03l-.208-2.725v-5.928l-1.058-12.45-.946.104v-.04l-.947.086-11.003 1.726-22.8-.508-1.138-.09.512 1.396.78 14.925-.46 1.965v1.637l.79 2.62.026.577.01.57h34.228v-.048l.946-.014z"/><path fill="#73A441" d="M354.732 120.504c-13.898-1.17-20.294 0-30.985-.38-.38-4.618-.38-9.62.27-16.097 10.42-.41 22.126 1.564 31.08.382.374-9.226-.364-11.88-.364-19.535-13.527-.782-22.5-.782-32.45-.782.355-1.077-.364-3.437 0-3.832.08-.138.21-.333.21-.333-.07-.112-.142-.25-.21-.45-.738-3.033 1.084-7.95 1.084-13.345 11.07-.4 22.04 0 31.366-.4.738-5.39 0-10.69.364-15.307-7.304-1.533-19.722-1.21-28.218-.825.043.355-.552 1.216-1.04 1.216-.728-.39.727-1.19-.365-1.586-5.302.396-11.783-.677-17.46.396-.362 8.852.368 16.106-.362 23.376.363 0 1.094-.394 1.094.388-1.822-.388 0 .785-1.094 1.182 0 9.52.73 25.23-.373 35.536 1.466 10.396-.728 18.455 1.103 29.548 16.73-.795 31.356-1.17 45.974-.795 1.747-7.64 0-9.618.375-18.356M236.654 120.504c-13.883-1.17-20.295 0-30.975-.38-.375-4.618-.375-9.62.26-16.097 10.42-.41 22.133 1.564 31.097.382.347-9.226-.383-11.88-.383-19.535-13.517-.782-22.48-.782-32.458-.782.372-1.077-.365-3.437 0-3.832.07-.098.12-.16.154-.228.122-.008.286.123.286.123s.01 0 .01-.01c.32.113.38-.903-.122-.33-.087.03-.148.014-.19-.035-.042-.086-.077-.173-.138-.304-.72-3.032 1.11-7.95 1.11-13.344 11.053-.4 22.03 0 31.348-.4.73-5.39 0-10.69.383-15.307-7.315-1.533-19.733-1.21-28.228-.825.053.355-.555 1.216-1.032 1.216-.738-.39.727-1.19-.373-1.586-5.303.396-11.782-.677-17.467.396-.356 8.852.374 16.106-.356 23.376.356 0 1.094-.394 1.094.388-1.83-.388 0 .785-1.094 1.182 0 9.52.73 25.23-.363 35.536 1.457 10.396-.737 18.455 1.092 29.548 16.73-.795 31.35-1.17 45.976-.795 1.746-7.64 0-9.618.366-18.356M697.568 39.178l-3.575-8.12-.25-4.42-2.18-1.128-.102-.225-.147.095-8.47-4.37-14.062-2.532-.737-4.352-12.053 2.057-11.044-1.98-7.254-.13c-2.16.17-4.052.596-5.38 1.607-1.81-.974-2.61-1.617-8.92-1.872l-2.308-.03-.727.035-5.798-2.415-10.57 3.415-11.026.675c-1.812.274-3.35.8-4.44 1.97-1.39-.315 1.032-1.162-.072-1.083-.823-.556-1.666-.488-2.678-.444l-3.992.245-5.737-5.182c-2.28-.407-14.16-3.154-19.097-4.174L544.41 1.983 526.867 0l-7.444.64c-1.226.174-2.237.13-3.062.918-1.102.1 1.42.56.096 1.087-3.02-2.373-8.025-.687-13.438-.582l-3.75.32 1.197 6.298-17.37-.098-3.732 1.82-22.827 4.418c-.017.13.686 1.458 1.44 3.384l-9.89 3.878 3.298 8.215 8.198 4.7 2.34-.465-1.568 3.015-.554 2.118 3.305.3c4.05 2.493-.938 3.067 14.16 12.056l.677 2.837 7.045 3.544-1.406 8.65 11.514-2.74c1.104-.018 2.25.685 2.9 1.054.226.125 8.587 4.695 10.896 5.6 1.224.465 2.438.92 3.68 1.338l16.91-2.75c.235-.026.513-.044.808-.026l17.77 6.107c.018.005 1.346.496 1.814 1.338v.006l9.067 18.035c.016.036.556 1.25.502 1.998l-.2 3.083v14.854l-.678-1.563-1.353-3.13-4.876 8.582.07.07c-.814 1.258-.972 3.25-.972 3.25l.303 12.49-1.354 2.576-.676 1.785h22.648l-1.97-5.256.076-3.592c-.077-.615-.11-1.18-.077-1.654l.262-4.935s.104-2.662 1.978-4.538v-.006l9.562-9.553 7.375-13.25c1.37-2.768 2.74-5.32 4.303-7.228-.382-.235-.938-1.116-.686-1.516.746.465 1.387.292 1.586-.022 1.034-3.31 4.367-7.297 7.653-10.932l9.642-13.66c1.603-.016 3.15-.016 3.582.018l-.015.044 2.47.085 16.564 1.228 1.98-.304 6.316-4.927-.53-1.72 1.43 1.004.025-.018 1.346.97 2.846 1.978-.01.062 1.513 1.076c.372.208.91.313.98-.72l.41-4.897 10.73-1.578 6.934-3.996 14.618.043 8.078-7.114L700 43.91l-2.432-4.732zM584.86 81.848l-12.415 18.53-1.08-9.75-4.3-9.36-3.054-6.54-4.2-2.583 3.74.54 11.694-1.858 2.294-.894 12.242-4.495 4.05-1.485-8.97 17.894z"/><path fill-rule="evenodd" fill="#73A441" d="M465.376 92.164l-1.36-.05-1.13.37-.92.922-.37 1.226.162 1.142.53.868.703.686 1.19.384h1.352l1.127-.81.54-1.29.07-1.51s-.55-.86-.61-1.02c-.05-.163-1.284-.918-1.284-.918M298.353 49.673c-1.46-.385-2.55-.78-3.558 0-1.11 0 1.362.688 0 1.092-2.837-2.667-8.972-1.092-13.537-.784.278 1.175-1.092 3.82.635 4.607-1.37 1.963-.635 4.62 0 7.648-1.37.792 0 2.75 0 5.413 0 14.13-.635 35.398-1.015 54.55-6.11.398-11.41-.4-15.342.398-.353-6.878-.725-9.234-.353-14.926-.738-.785-1.745-.785-1.745-1.968.634-.3 1.373 0 1.373-.3-7.13-.396-10.335-.396-15.634 0-.374 10.315-2.197 24.836-1.093 32.89 12.07 2.645 30.62 0 44.147 1.175 1.82 0 3.295.395 4.3-.393 1.1-27.582 1.45-56.117 1.823-89.4M76.944 120.03c.356-23.762 0-39.467 0-70.386-5.77-.392-12.164-.792-16.104.286-.632 29.152-.356 67.442-1.006 88.457 5.31 2.354 8.885-.39 15.27 1.174 7.13-1.56 13.9 0 21.033-.788.728-4.61 0-11.086.365-16.39-6.768-1.565-13.91-.78-19.558-2.353M178.32 89.985c1.47.686 1.47-3.827 0-4.216 1.47.388.373-1.573 1.102-1.963-.73-.79-1.734.78-1.1-.79 1.1-8.34.37-21.008.737-33.27-10.335-1.19-27.793-1.19-38.126 0-1.468-1.485-6.03.778-7.852-.8-.383.8-1.104.8-1.37 1.18-.365 14.936.266 30.63 0 51.346 0 .685.632 1.076.987 1.477-.356 0-.723 0-.987-.4.265 9.234-.366 22.588 0 35.553 1.37 1.96 11.33 1.176 16.353.797.73-9.14 0-15.63.364-22.894 0-5.008.366-9.238 1.373-13.848 8.225-.685 21.118.792 28.89-.285-.372-5.8 1.467-7.374-.372-11.888m-14.966-6.967c-6.395.398-7.852 0-16 0 .277-5.688.643-11.78 1.38-17.19 5.396.4 10.697.79 16.086 1.882-.737 7.357-.737 8.826-1.466 15.308M380.423 89.23c.382 0 1.112 0 1.112.392-.73 0-1.112.39-1.112.688 1.476 5.797-1.733 15.707 1.476 19.93-1.84 3.435-1.477 15.202-.364 20.99-1.477 1.876-.383 6.09-.383 8.05 1.38.3 3.94 1.08 4.305-.777 3.938 1.47 7.48.4 11.34.4 1.822-5.412.354-8.06 1.085-13.86-.354-.376-1.728 0-1.728-.776.643 0 1.373 0 1.728.4-.354-4.524 0-14.037 0-20.51 0 1.18-.73-2.665.363-1.58-.718-9.91 0-21 0-36.328 4.678 0 12.167 1.095 13.9-.375-.73-5.017 0-11.337 0-17.03-18.83-.79-32.823-.26-47.08-.26-1.015 7.26-.624 12.67-1.015 18.456 5.685 1.865 11.08 0 16.755 1.865-.746 6.48.347 14.936-.382 20.326M9.75 138.416c2.685.33 4.218.365 4.913.537 10.534.395 18.654-.328 24.41-.11 3.433-1.278 8.537-3.458 9.228-13.653l-.016-.367V63.08l-.19-.723c0-8.48-6.535-12.262-8.372-13.192-.887.018-1.77.062-2.658.095-3.426.166-6.862.3-10.28.217-6.073-.125-12.14-.33-18.204-.54-3.435 1.253-5.493 3.924-6.543 5.74-.562 8.458-1.1 16.897-.7 25.38.138 2.61.286 5.207.25 7.82-.053 3.33-.374 6.663-.416 10.012-.155 9.98-.225 19.967-.31 29.964.556 3.49 2.377 9.732 8.89 10.562m7.31-62.306c-.025-3.228 0-6.464 0-9.97 5.933.287 11.548.374 17.265.648.027.617.07 1.103.062 1.572-.27 12.3-.52 24.585-.833 36.888-.052 1.962-.322 3.917-.4 5.876a27.27 27.27 0 0 0 .14 3.958c.182 1.933.147 3.813-.766 5.795-4.014-.536-9.376.478-13.437-.062-.416-.064-.885 0-1.225-.212-.382-.233-.9-.684-.918-1.07-.19-3.653.236-7.72.13-9.776-.146-2.894 0-5.86-.19-8.75-.06-.876.044-1.755.036-2.626-.097-7.42.215-14.84.137-22.27"/><path fill-rule="evenodd" fill="#94938A" d="M106.844 166.984c0-8.47-6.733-11.848-8.59-12.77-.874.012-1.76.055-2.653.094-3.418.16-6.863.3-10.282.215-6.074-.123-12.13-.332-18.204-.54-3.427 1.25-5.483 3.93-6.533 5.74-.555 8.456-1.11 16.9-.702 25.382.14 2.61.287 5.2.26 7.818-.06 3.33-.37 6.662-.425 10.01-.147 9.977-.234 19.977-.312 29.965.557 3.486 2.38 9.727 8.905 10.56 2.68.33 4.207.364 4.9.546 10.535.387 18.666-.336 24.41-.123 3.437-1.272 8.335-3.858 9.022-14.046l.2-.785.208-61.595-.2-.47zm-14.75 43.31c-.05 1.958-.32 3.91-.398 5.876-.052 1.314 0 2.652.138 3.953.19 1.945.157 3.82-.764 5.81-4.018-.548-9.378.466-13.438-.073-.417-.06-.885 0-1.224-.213-.382-.23-.904-.68-.92-1.07-.2-3.65.242-7.715.13-9.77-.157-2.89-.01-5.868-.2-8.753-.06-.87.06-1.756.035-2.625-.087-7.43.225-14.845.146-22.267-.026-3.236 0-6.473 0-9.986 5.926.303 11.54.38 17.267.656.018.625.068 1.104.052 1.58-.262 12.294-.514 24.583-.826 36.88M166.233 154.37c-4.292-.386-12.162-.386-16.092.685-1.007 12.664.73 28.3-1.007 44.39-6.124-14.91-9.95-29.04-16.452-44.75-3.93 1.17-9.594-.788-14.897.78.28 27.188 0 65.773-.364 88.057 3.93.39 8.5.39 14.257-.39 1.733-18.753-.366-33.388 1.36-45.153 6.775 15.6 10.333 29.433 17.103 45.538 6.116 0 10.696 0 15 .39 1.82-36.03 1.456-50.946 1.092-77.347.6-4.32.6-9.437 0-12.2M518.97 154.37c-4.296-.386-12.155-.386-16.076.685-1.014 12.664.72 28.3-1.014 44.39-6.127-14.91-10.11-29.366-16.59-45.075-3.55.795-9.407-1.13-14.758 0 .27 27.19 0 66.88-.367 89.162 3.932.39 8.506.39 14.258-.39 1.734-18.753-.367-33.388 1.378-45.153 6.762 15.6 10.316 29.433 17.094 45.538 6.117 0 10.69 0 14.983.39 1.832-36.03 1.47-50.946 1.094-77.347.652-3.953.756-9.48 0-12.2M283.81 209.254c.356-9.22-.38-11.893-.38-19.537-13.52-.78-22.49-.78-32.452-.78.374-1.085-.356-3.437 0-3.83.043-.065.068-.112.103-.17.088-.052.185-.022.253.01.044.03.07.052.103.056v.004-.004c.28.07.348-.727 0-.48-.277.225-.458-.217-.458-.217-.73-3.033 1.102-7.94 1.102-13.34 11.055-.39 22.02 0 31.35-.39.737-5.388 0-10.69.38-15.31-7.313-1.533-19.72-1.205-28.224-.812-.02-.143-.15-.2-.417-.088-.14.047-.254.12-.254.12.765-.007.497.48.487.5-.208.34-.547.67-.85.67-.73-.39.73-1.17-.375-1.573-5.298.404-11.78-.682-17.455.404-.365 8.824.355 16.088-.365 23.35.365 0 1.103-.387 1.103.398-1.822-.398 0 .79-1.102 1.172 0 9.53.72 25.236-.365 35.547 1.468 10.402-.73 18.455 1.085 29.547 16.746-.786 31.366-1.173 45.995-.786 1.735-7.666 0-9.627.355-18.357-13.892-1.172-20.294 0-30.975-.398-.374-4.618-.374-9.614.268-16.108 10.415-.393 22.127 1.58 31.09.402M619.203 154.47c-1.84 10.282-2.05 8.128-3.662 18.82-.12.9 1.52-1.11 1.892 0-1.507 0-1.89.798-2.637 1.605-1.484 4.133-1.276 6.53-3.28 11.004-3.896-16.417-3.773-16.157-7.278-31.53-3.825-.307-19.376 0-19.376 0s4.87 14.965 6.057 18.51c1.885 5.53 3.663 10.043 4.053 12.764.373 1.51 1.198 3.658 1.527 5.238 2.004 9.316 4.242 10.264 5.103 14.617l.745 4.39c.252-.06 1.396-.492 2.846-.135-1.16-.295.425 2.055.425 2.055s-2.228 0-2.887 1.2c-1.873 1.622.278 7.06-.757 11.794.375.8 1.036 1.213 1.8 1.605-1.042 0-1.425.71-.383 1.524-.66 0-.66-.412-1.416-.412 0 7.16.758 9.48.375 15.732 4.025 1.107 10.923.662 17.936.395-.38-10.585.736-21.632 0-37.356 2.16-5.953 7.246-20.395 7.246-20.395s4.918-11.964 5.994-17.556c2.094-6.768 2.558-7.54 4.712-14.17-6.56-.4-13.14-.16-19.03.297M340.764 154.37c-4.574 0-9.285-.155-14.263-.306-4.99-.158-10.12-.307-15.125-.307-6.08 0-11.044.227-15.407.73.206 13.145 0 26.763-.182 39.954-.244 16.616-.504 33.78.068 49.61h.6c1.266 0 2.558.035 3.86.057 1.258.025 2.543.053 3.773.053 2.083 0 4.633-.06 6.795-.54.182-2.378.2-5.333.2-8.407.044-5.63.068-11.453 1.013-15.965l1.284-6.1 2.664 5.566c1.89 3.97 3.583 8.186 5.223 12.283 1.785 4.45 3.47 8.72 5.568 12.918 2.805.31 5.625.17 8.226.17 0 0 5.876.256 8.593-.18-1.408-4.84-3.35-8.873-5.477-13.277-2.802-5.78-5.69-11.75-7.09-19.307l-.468-2.57 2.432-.144c5.577-.32 8.84-.63 12.112-2.012-.174-5.816-.077-12.46.02-19.473.164-11.526.328-23.42-.617-32.79-1.258.024-2.518.04-3.8.04m-10.343 34.173l-.086 2.31-2.146-.136a25.663 25.663 0 0 0-2.028-.06c-1.015 0-2.057.034-3.11.067-1.092.033-2.185.06-3.235.06-2.48 0-4.26-.187-5.75-.614l-1.122-.314-.364-1.16c-.918-3.117-.624-6.428-.337-9.627.15-1.76.304-3.448.252-5.015l-.087-1.928 1.772-.387c3.026-.672 6.653-.992 11.07-.992.58 0 1.172 0 1.75.018l1.694.025.355 1.786c.773 3.95 1.613 9.356 1.372 15.967M460.275 225.4c-.644-2.81-1.31-5.836-2.032-9.008l-9.638-42.727a314.896 314.896 0 0 1-3.064-17.385l-1.377-1.62-.4.145c-.895.48-2.5.475-2.5.475l-1.7.13.02-.83-15.063-.188-2.628 12.348-3.74 15.56-1.042 4.753-.34.906-1.015 3.85-2.064 7.394.35.656-.495 2.205s-.096.184-.55.148c-1.238 5.44-2.444 10.82-3.53 15.775l-.017.174-.51 5.12-2.553 10.075-.86 4.375-.25.658c-.304 1.797-.46 3.055-.442 3.656.024.99.52 1.87 1.76 1.84 1.405-.02 2.794.143 4.182.152 2.62.04 6.075.025 8.695.047.788.01 1.094-.375 1.094-1.236 0-1.08 1.006-2.872 1.483-5.02l.01-.454.822-3.422 2.02-7.805h.584l.456.298c.036-.096.044-.195.078-.3h10.24v-.1h5.936c.17 4.058 3.34 12.798 3.512 16.8.027.38.67 1.057 1.05 1.074 2.64.154 15.75.06 16.183.06.45 0 .503-.673.503-.673l-.98-5.138-2.188-12.772zm-32.26-15.2l5.882-25.993 5.363 26.615-11.245-.62zM406.107 180.32l.52-5.125 2.55-10.062.86-4.39.26-.642c.295-1.808.46-3.07.44-3.68-.043-.985-.527-1.858-1.76-1.83-1.397.02-2.793-.138-4.183-.16-2.617-.03-6.08-.026-8.694-.04-.78-.008-1.102.377-1.102 1.223 0 1.1-.996 2.875-1.475 5.033v.457l-.832 3.416-2.02 7.79-3.107 15.957-5.898 26-5.345-26.617-2.942-15.22c-.167-4.06-3.34-12.794-3.514-16.808-.026-.373-.678-1.057-1.06-1.078-2.63-.145-15.14-.057-15.564-.057-.442 0-.494.674-.494.674l.97 5.138 2.188 12.777c.643 2.818 1.316 5.838 2.03 9.012l9.43 42.73c1.476 7.126 2.676 13.255 3.272 17.362l1.373 1.634.396-.13c.912-.487 2.51-.487 2.51-.487l1.707-.14-.01.85 14.433.18 2.626-12.345 3.74-15.56 1.042-4.755.33-.918 1.03-3.845 2.066-7.404-.355-.644.503-2.205s.105-.177.54-.15c1.23-5.437 2.445-10.813 3.54-15.776v-.164zM577.262 210.053c-4.558-.393-8.86-1.184-14.257 0 0 5.787-.374 11.094.363 15.703-4.294 1.18-12.434-.4-16.718 0 0-18.352-1.11-35.246 0-52.81 5.302.397 12.052-.782 15.626 1.472-.28 3.818-1 7.264-.28 14.23 5.304.385 12.436 1.078 16.378-.79 0-11.878-.73-23.358-1.112-32.98-9.962-.694-20.65-1.476-30.977-.694-3.932 0-8.963-.78-11.8.398-.73 0 .364.297.364.686-1.096-.686-2.464-1.084-3.922-.39 0 7.66-1.018 16.495 0 22.683-1.382 12.167-.74 27.1-.74 39.358 0 2.357-.642 9.627-.642 13.455 0 4.91.364 9.31.364 13.543 7.41.393 17.823.193 24.956-.197 9.24-.778 18.106 1.395 23.86-.468-1.084-6.963.37-17.896-1.82-25.932 1.468-2.254 0-3.445.356-7.267M47.757 210.053c-4.572-.393-8.868-1.184-14.257 0 0 5.787-.372 11.094.366 15.703-4.305 1.18-12.435-.4-16.735 0 0-18.352-1.093-35.246 0-52.81 5.308.397 12.077-.782 15.633 1.472-.276 3.818-1.003 7.264-.276 14.23 5.31.385 12.442 1.078 16.372-.79 0-11.878-.73-23.358-1.102-32.98-9.96-.694-20.66-1.476-30.984-.694-3.94 0-8.962-.78-11.8.398-.73 0 .365.297.365.686-1.095-.686-2.467-1.084-3.923-.39 0 7.66-1.008 16.495 0 22.683C.037 189.728.67 204.66.67 216.92c0 2.357-.634 9.627-.634 13.455 0 4.91-.035 9.475-.035 13.695 7.394.396 18.24.04 25.36-.35 9.236-.777 18.095 1.475 23.865-.393-1.096-6.98.363-17.97-1.83-26.006 1.462-2.254 0-3.445.362-7.267M190.867 154.322c-1.405 0-6.67-.27-8.13-.27 0 0-4.616 2.41-4.435 6.385.13 2.893-.12 5.69.643 7.395-1.37.79-1.093 5.203.366 5.404-.356-.045-.72 0-.998-.393.633 6.084-.736 13.15.633 16.674-.703.768-.686 1.832-.556 3.08.14 1.154 2.318 4.945 3.426 5.537 8.364 4.426 18.223 9.242 26.388 14.352 0 5.31-.373 13.086.727 15.746-5.03 1.176-12.52.387-16.726 0-1.094-3.05-.73-8.064-.73-14.242-.364 0-.738 0-.738-.393-5.664 0-7.852-1.084-13.526 0-.19 4.062-.478 13.357-.616 21.72-.123 6.462 6.638 7.86 6.845 8.122 9.596 1.476 19.835-.243 27.955.165 2.197.28 3.94 1.457 3.202 0 .364.676.956-.398 1.102.28-.365 0-.365 0-.365.396 2.465-.675 8.562-.103 8.952-4.356.8-2.947.08-23.93.703-33.81.097-1.265-2.645-4.946-4.155-5.618-9.29-4.1-19.557-8.63-27.262-12.932.373-5.406-.727-13.648.373-17.086 5.4 1.086 11.783 0 16.452.79.998 4.894-.364 5.753.27 11.454 3.296 1.172 11.435 1.963 14.63 1.172.364-11.49.728-7.744.728-23.074 0-8.355-18.794-6.498-35.16-6.498"/></svg>